HIERARCHY
ROOT reference
{
  OFFSET 0 0 0
  CHANNELS 6 Xposition Yposition Zposition Zrotation Xrotation Yrotation
  JOINT Hips
  {
    OFFSET 11.5135 85.6102 189.42
    CHANNELS 6 Xposition Yposition Zposition Zrotation Xrotation Yrotation
    JOINT Spine
    {
      OFFSET 0 7.3847 0
      CHANNELS 6 Xposition Yposition Zposition Zrotation Xrotation Yrotation
      JOINT Spine1
      {
        OFFSET 0 22.52 0
        CHANNELS 6 Xposition Yposition Zposition Zrotation Xrotation Yrotation
        JOINT Neck
        {
          OFFSET 0 22.4276 2.03887
          CHANNELS 6 Xposition Yposition Zposition Zrotation Xrotation Yrotation
          JOINT Head
          {
            OFFSET 0 12.608 -1.80115
            CHANNELS 6 Xposition Yposition Zposition Zrotation Xrotation Yrotation
            End Site
            {
              OFFSET 0 22.5143 0
            }
          }
        }
        JOINT LeftShoulder
        {
          OFFSET 3.70204 19.5563 -0.329131
          CHANNELS 6 Xposition Yposition Zposition Zrotation Xrotation Yrotation
          JOINT LeftArm
          {
            OFFSET 13.7086 0 0
            CHANNELS 6 Xposition Yposition Zposition Zrotation Xrotation Yrotation
            JOINT LeftForeArm
            {
              OFFSET 25.9307 0 0
              CHANNELS 6 Xposition Yposition Zposition Zrotation Xrotation Yrotation
              JOINT LeftHand
              {
                OFFSET 23.5097 0 0
                CHANNELS 6 Xposition Yposition Zposition Zrotation Xrotation Yrotation
                End Site
                {
                  OFFSET 13.5086 0 0
                }
              }
            }
          }
        }
        JOINT RightShoulder
        {
          OFFSET -3.48695 19.5563 -0.329131
          CHANNELS 6 Xposition Yposition Zposition Zrotation Xrotation Yrotation
          JOINT RightArm
          {
            OFFSET -13.7086 0 0
            CHANNELS 6 Xposition Yposition Zposition Zrotation Xrotation Yrotation
            JOINT RightForeArm
            {
              OFFSET -25.9307 0 0
              CHANNELS 6 Xposition Yposition Zposition Zrotation Xrotation Yrotation
              JOINT RightHand
              {
                OFFSET -23.5097 0 0
                CHANNELS 6 Xposition Yposition Zposition Zrotation Xrotation Yrotation
                End Site
                {
                  OFFSET -13.5086 0 0
                }
              }
            }
          }
        }
      }
    }
    JOINT LeftUpLeg
    {
      OFFSET 9.00574 0 0
      CHANNELS 6 Xposition Yposition Zposition Zrotation Xrotation Yrotation
      JOINT LeftLeg
      {
        OFFSET 0 -37.3387 0
        CHANNELS 6 Xposition Yposition Zposition Zrotation Xrotation Yrotation
        JOINT LeftFoot
        {
          OFFSET 0 -36.155 0
          CHANNELS 6 Xposition Yposition Zposition Zrotation Xrotation Yrotation
          JOINT LeftToeBase
          {
            OFFSET 0 -5.85373 13.5086
            CHANNELS 6 Xposition Yposition Zposition Zrotation Xrotation Yrotation
            End Site
            {
              OFFSET 0 0 3.60229
            }
          }
        }
      }
    }
    JOINT RightUpLeg
    {
      OFFSET -9.00574 0 0
      CHANNELS 6 Xposition Yposition Zposition Zrotation Xrotation Yrotation
      JOINT RightLeg
      {
        OFFSET 0 -37.3387 0
        CHANNELS 6 Xposition Yposition Zposition Zrotation Xrotation Yrotation
        JOINT RightFoot
        {
          OFFSET 0 -36.155 0
          CHANNELS 6 Xposition Yposition Zposition Zrotation Xrotation Yrotation
          JOINT RightToeBase
          {
            OFFSET 0 -5.85373 13.5086
            CHANNELS 6 Xposition Yposition Zposition Zrotation Xrotation Yrotation
            End Site
            {
              OFFSET 0 0 3.60229
            }
          }
        }
      }
    }
  }
}
MOTION
Frames:	5
Frame Time:	0.004
0 0 0 0 0 -0 -27.8899 75.1521 -193.156 0.743651 1.72409 3.2165 1.77636e-015 7.3847 2.84217e-014 -1.05353 -6.35174 0.760552 3.55271e-015 22.52 0 -0.762678 -0.954803 0.811432 0 22.4276 2.03887 6.58394 24.9971 0.850903 0 12.608 -1.80115 -5.02246 -2.47733 0.620539 3.70204 19.5563 -0.329131 18.0429 0.731657 -3.12663 13.7086 2.84217e-014 0 -30.8434 -1.33818 2.96075 25.9307 0 0 4.72958 -3.36264 1.66662 23.5097 0 0 -1.4418 -3.39395 -2.96489 -3.48695 19.5563 -0.329131 -13.5695 -1.32869 -2.65425 -13.7086 0 0 21.111 1.64496 1.97544 -25.9307 2.84217e-014 -2.84217e-014 -3.76924 -0.501489 -0.306798 -23.5097 2.84217e-014 0 -4.9461 -0.4865 -0.581726 9.00574 -1.42109e-014 0 -2.53401 -7.51518 1.63193 -3.55271e-015 -37.3387 -2.84217e-014 -1.99063 16.8773 4.17674 -3.55271e-015 -36.155 2.84217e-014 2.20467 -10.7066 -1.76396 -3.55271e-015 -5.85373 13.5086 -1.2424e-016 9.93923e-017 -2.38542e-015 -9.00574 0 2.84217e-014 -1.5123 -1.3571 0.790157 -3.55271e-015 -37.3387 0 8.51779 11.6194 -2.15739 -3.55271e-015 -36.155 2.84217e-014 -6.10296 -12.6948 -15.11 0 -5.85373 13.5086 -3.72721e-017 -9.93923e-017 -0 
0 0 0 0 0 -0 -27.8899 75.1521 -193.156 0.742699 1.74102 3.21653 3.55271e-015 7.3847 2.84217e-014 -1.05353 -6.35174 0.760552 0 22.52 0 -0.764864 -0.964617 0.811435 0 22.4276 2.03887 6.58394 24.9971 0.850903 5.32907e-015 12.608 -1.80115 -5.03341 -2.47733 0.620539 3.70204 19.5563 -0.329131 18.0429 0.731657 -3.12663 13.7086 0 -2.84217e-014 -30.8424 -1.35636 2.96077 25.9307 0 0 4.7145 -3.36266 1.65881 23.5097 0 0 -1.45412 -3.39301 -2.98403 -3.48695 19.5563 -0.329131 -13.5694 -1.32441 -2.65424 -13.7086 0 -2.84217e-014 21.1104 1.66228 1.97618 -25.9307 -2.84217e-014 -2.84217e-014 -3.77924 -0.508395 -0.312565 -23.5097 0 0 -4.94514 -0.493905 -0.575886 9.00574 0 -2.84217e-014 -2.53401 -7.51518 1.63193 3.55271e-015 -37.3387 2.84217e-014 -1.98827 16.8587 4.17307 3.55271e-015 -36.155 0 2.22545 -10.6944 -1.75927 -3.55271e-015 -5.85373 13.5086 1.2424e-017 0 -0 -9.00574 -1.42109e-014 0 -1.51235 -1.37115 0.780296 0 -37.3387 -2.84217e-014 8.51659 11.6195 -2.15141 -3.55271e-015 -36.155 0 -6.08021 -12.6946 -15.1131 0 -5.85373 13.5086 2.23633e-016 0 1.59028e-015 
0 0 0 0 0 -0 -27.8899 75.1521 -193.156 0.744569 1.74649 3.21654 1.77636e-015 7.3847 -2.84217e-014 -1.05353 -6.35174 0.760552 0 22.52 0 -0.774026 -0.974952 0.811437 0 22.4276 2.03887 6.58391 24.9989 0.850915 0 12.608 -1.80115 -5.01921 -2.47514 0.620538 3.70204 19.5563 -0.329131 18.0429 0.731657 -3.12663 13.7086 -2.84217e-014 0 -30.8427 -1.35211 2.96077 25.9307 2.84217e-014 -2.84217e-014 4.73479 -3.35625 1.64346 23.5097 0 0 -1.6817 -3.38094 -2.94471 -3.48695 19.5563 -0.329131 -13.5687 -1.30954 -2.65423 -13.7086 2.84217e-014 0 21.1072 1.67093 1.98588 -25.9307 0 2.84217e-014 -3.77991 -0.520676 -0.318815 -23.5097 0 -2.84217e-014 -4.97542 -0.506757 -0.565305 9.00574 1.42109e-014 -2.84217e-014 -2.53387 -7.51598 1.63286 0 -37.3387 2.84217e-014 -1.98138 16.851 4.19086 -3.55271e-015 -36.155 0 2.22542 -10.6851 -1.78298 3.55271e-015 -5.85373 13.5086 1.49089e-016 1.98785e-016 -0 -9.00574 0 -2.84217e-014 -1.51158 -1.37454 0.810446 7.10543e-015 -37.3387 0 8.5246 11.624 -2.19029 0 -36.155 0 -6.06664 -12.7049 -15.1006 0 -5.85373 13.5086 2.73329e-016 0 -0 
0 0 0 0 0 -0 -27.8875 75.1527 -193.156 0.746437 1.75843 3.21656 1.77636e-015 7.3847 2.84217e-014 -1.05353 -6.35239 0.760553 1.77636e-015 22.52 0 -0.771873 -0.987938 0.81144 -3.55271e-015 22.4276 2.03887 6.58363 25.0157 0.851032 -1.77636e-015 12.608 -1.80115 -5.02364 -2.48989 0.620545 3.70204 19.5563 -0.329131 18.0429 0.731657 -3.12663 13.7086 0 -2.84217e-014 -30.8311 -1.37954 2.9608 25.9307 -2.84217e-014 2.84217e-014 4.71687 -3.35341 1.63324 23.5097 0 0 -1.67609 -3.37772 -2.93508 -3.48695 19.5563 -0.329131 -13.569 -1.31591 -2.65423 -13.7086 0 0 21.1345 1.7481 1.97566 -25.9307 0 0 -3.82208 -0.544501 -0.327107 -23.5097 0 0 -4.90335 -0.530473 -0.583321 9.00574 1.42109e-014 0 -2.53 -7.53157 1.61633 0 -37.3387 -2.84217e-014 -1.98871 16.8627 4.15673 0 -36.155 2.84217e-014 2.24668 -10.6809 -1.75771 -3.55271e-015 -5.85373 13.5086 -2.36057e-016 0 -7.95139e-016 -9.00574 1.42109e-014 2.84217e-014 -1.50849 -1.3889 0.793434 0 -37.3387 0 8.52272 11.6342 -2.17907 7.10543e-015 -36.155 2.84217e-014 -6.09325 -12.6863 -15.1018 -1.42109e-014 -5.85373 13.5086 1.11816e-016 1.49089e-016 -0 
0 0 0 0 0 -0 -27.8839 75.1533 -193.155 0.748271 1.7717 3.21708 -3.55271e-015 7.3847 2.84217e-014 -1.05355 -6.35051 0.76055 -1.77636e-015 22.52 0 -0.773765 -1.01074 0.811446 -3.55271e-015 22.4276 2.03887 6.59399 25.0312 0.845745 -1.77636e-015 12.608 -1.80115 -5.03315 -2.50089 0.61489 3.70204 19.5563 -0.329131 18.0429 0.731657 -3.12663 13.7086 0 0 -30.8267 -1.39709 2.95709 25.9307 0 0 4.68846 -3.34223 1.65718 23.5097 2.84217e-014 -2.84217e-014 -1.46128 -3.37601 -2.99067 -3.48695 19.5563 -0.329131 -13.5693 -1.32399 -2.65424 -13.7086 -2.84217e-014 0 21.136 1.773 1.97109 -25.9307 2.84217e-014 2.84217e-014 -3.8345 -0.564522 -0.33536 -23.5097 0 0 -4.90001 -0.550508 -0.589216 9.00574 -1.42109e-014 2.84217e-014 -2.54246 -7.54157 1.60018 3.55271e-015 -37.3387 0 -1.99533 16.861 4.18903 -3.55271e-015 -36.155 0 2.22799 -10.6731 -1.749 3.55271e-015 -5.85373 13.5086 6.21202e-017 9.93923e-017 -0 -9.00574 -1.42109e-014 0 -1.52029 -1.39801 0.804934 3.55271e-015 -37.3387 -2.84217e-014 8.5234 11.6327 -2.18272 0 -36.155 2.84217e-014 -6.09612 -12.6952 -15.1079 0 -5.85373 13.5086 5.09386e-016 1.98785e-016 1.59028e-015 
